Coordinates
version=1
nRows=12
nColumns=34
inDegrees=yes

Units are S.I. units (second, meters, Newtons, ...)
If the header above contains a line with 'inDegrees', this indicates whether rotational values are in degrees (yes) or radians (no).

endheader
time	pelvis_tilt	pelvis_list	pelvis_rotation	pelvis_tx	pelvis_ty	pelvis_tz	hip_flexion_r	hip_adduction_r	hip_rotation_r	knee_angle_r	ankle_angle_r	subtalar_angle_r	mtp_angle_r	hip_flexion_l	hip_adduction_l	hip_rotation_l	knee_angle_l	ankle_angle_l	subtalar_angle_l	mtp_angle_l	lumbar_extension	lumbar_bending	lumbar_rotation	arm_flex_r	arm_add_r	arm_rot_r	elbow_flex_r	pro_sup_r	arm_flex_l	arm_add_l	arm_rot_l	elbow_flex_l	pro_sup_l
      4.96666670	    -88.17624729	     48.00926486	     -4.04877286	     -1.80912469	      0.57662937	      0.23486656	    119.99999986	    -50.00000023	     39.99999995	      0.00000000	     50.00000000	    -35.00000000	      0.00000000	    119.99999986	    -43.76897556	    -39.99999995	    104.14346276	    -50.00000000	     35.00000000	      0.00000000	     88.00438081	     90.00000018	     88.00438072	    -77.79259416	    198.25958405	    438.18090345	     13.88908646	     19.11594694	     84.85550077	    -30.23078216	    572.95779513	     15.60081367	      0.00000000
      4.98333330	    -89.92700134	     46.32324482	     -2.82396056	     -1.79450772	      0.56959578	      0.23422695	    119.99999986	    -50.00000023	     39.99999995	      0.00000000	     50.00000000	    -35.00000000	      0.00000000	    119.99999986	    -42.03170248	    -37.13198016	    104.73781552	    -50.00000000	     35.00000000	      0.00000000	     88.73018024	     90.00000018	     88.73018030	    -78.63932879	    199.39842682	    437.71358520	     14.59503510	     16.98274281	     81.76362787	    -27.53881557	    572.95779513	     15.38796277	      0.00000000
      5.00000000	    -89.46427206	     45.31723331	     -2.92647878	     -1.76840894	      0.56394696	      0.23382699	    119.99999986	    -50.00000023	     39.52392194	      0.00000000	     50.00000000	    -35.00000000	      0.00000000	    116.81046030	    -39.56219658	    -37.42540858	    104.62762976	    -50.00000000	     34.98617772	      0.00000000	     88.35235767	     90.00000018	     88.35235775	    -78.77418503	    199.30562777	    437.64932074	     14.56370770	     16.67278704	     80.92816459	    -26.80104574	    572.95779513	     15.45056805	      0.00000000
      5.01666670	    -90.00000018	     44.05816782	     -3.42803229	     -1.72956631	      0.55672713	      0.23475533	    119.99999986	    -50.00000023	     31.92827220	      0.00000000	     50.00000000	    -35.00000000	      0.00000000	    115.26665467	    -38.38979700	    -39.91413811	    105.13121802	    -50.00000000	     35.00000000	      0.00000000	     88.59071139	     90.00000018	     88.59071151	    -78.11462364	    198.46867418	    437.66277029	     14.30157886	     16.26739962	     79.16641839	    -25.41212327	    572.95779513	     15.56827034	      0.00000000
      5.03333330	    -90.00000018	     43.41465504	     -4.23545070	     -1.70406608	      0.55707962	      0.23271329	    119.99999986	    -50.00000023	     31.40188254	      0.00000000	     50.00000000	    -35.00000000	      0.00000000	    114.20780148	    -37.92873422	    -39.99999995	    105.73760094	    -50.00000000	     35.00000000	      0.00000000	     88.15318894	     90.00000018	     88.15318906	    -78.03889211	    198.57031394	    437.67806172	     14.36432946	     16.23288269	     78.99189000	    -25.03215901	    572.93036113	     15.50476522	      0.00000000
      5.05000000	    -90.00000018	     44.71824555	     -5.46503470	     -1.69864122	      0.56183710	      0.23060224	    119.99999986	    -50.00000023	     35.98025059	      0.00000000	     50.00000000	    -35.00000000	      0.00000000	    113.55867401	    -38.53734106	    -39.99999995	    105.46878861	    -50.00000000	     35.00000000	      0.00000000	     87.73659791	     90.00000018	     87.73659805	    -78.30436249	    198.73050350	    437.65741259	     14.83069116	     15.41402536	     74.58916493	    -19.96456249	    572.42417557	     15.29214715	      0.00000000
      5.06666670	    -90.00000018	     45.94596233	     -7.99401873	     -1.69574763	      0.56827848	      0.23003352	    119.99999986	    -50.00000023	     39.99999995	      0.00000000	     50.00000000	    -35.00000000	      0.00000000	    113.22260614	    -40.22762431	    -39.99999995	    104.95349859	    -50.00000000	     35.00000000	      0.00000000	     87.10819605	     90.00000018	     87.10819619	    -78.48031601	    199.12506919	    437.66374681	     15.02772954	     15.37294822	     74.32931787	    -19.54327257	    572.37279397	     15.24338185	      0.00000000
      5.08333330	    -90.00000018	     48.03249440	    -10.72260836	     -1.68029379	      0.57504670	      0.22982719	    119.99999986	    -50.00000023	     39.99999995	      0.00000000	     50.00000000	    -35.00000000	      0.00000000	    110.68647056	    -42.05044174	    -39.99999995	    105.48437024	    -50.00000000	     34.94847527	      0.00000000	     86.58720088	     90.00000018	     86.58720102	    -78.59342926	    199.64471539	    437.68174282	     15.30203088	     15.27777228	     74.15961984	    -19.02469272	    572.31143500	     15.14620198	      0.00000000
      5.10000000	    -90.00000018	     48.58577364	    -12.47927084	     -1.65409884	      0.58011034	      0.23010161	    119.99999986	    -50.00000023	     39.99999995	      0.00000000	     50.00000000	    -35.00000000	      0.00000000	    108.01520460	    -41.99461992	    -39.99999995	    106.05855249	    -50.00000000	     35.00000000	      0.00000000	     86.77211231	     90.00000018	     86.77211245	    -78.01408151	    199.91872933	    437.76668740	     15.47586803	     15.17374648	     74.64519352	    -19.09460313	    572.33680683	     15.04962661	      0.00000000
      5.11666670	    -90.00000018	     47.68976190	    -13.77830171	     -1.62799214	      0.58588410	      0.23277321	    119.99999986	    -50.00000023	     39.99999995	      0.00000000	     50.00000000	    -35.00000000	      0.00000000	    105.49039619	    -40.80807515	    -39.99999995	    105.66692088	    -50.00000000	     35.00000000	      0.00000000	     86.92091858	     90.00000018	     86.92091871	    -73.08004163	    200.51296542	    438.50063528	     16.08074043	     14.70730604	     76.96198094	    -19.59196860	    572.48782013	     14.84650255	      0.00000000
      5.13333330	    -90.00000018	     45.19804660	    -14.61555143	     -1.60385575	      0.59253127	      0.23796049	    119.99999986	    -50.00000023	     37.75909180	      0.00000000	     50.00000000	    -35.00000000	      0.00000000	    104.28253212	    -39.70788907	    -39.99999995	    106.04094692	    -50.00000000	     35.00000000	      0.00000000	     87.08814547	     90.00000018	     87.08814567	    -68.68478329	    198.16599258	    450.64771903	     17.07496607	      0.00000000	     77.79904811	    -19.23042624	    568.91512031	     15.71409717	      0.00000000
      5.15000000	    -90.00000018	     40.75656746	    -14.15469810	     -1.57903950	      0.59888240	      0.24190164	    119.99999986	    -50.00000023	     35.81400431	      0.00000000	     50.00000000	    -35.00000000	      0.00000000	    103.89066689	    -37.43986215	    -39.99999995	    105.93745258	    -50.00000000	     35.00000000	      0.00000000	     86.87043660	     90.00000018	     86.87043682	    -63.69695554	    195.19928189	    451.56067386	     16.60527874	      0.00000000	     76.57129154	    -17.56133488	    568.46715884	     15.45062717	      0.00000000
